<mxfile host="Electron" agent="Mozilla/5.0 (Windows NT 10.0; Win64; x64) AppleWebKit/537.36 (KHTML, like Gecko) draw.io/28.0.6 Chrome/138.0.7204.100 Electron/37.2.3 Safari/537.36" version="28.0.6">
  <diagram name="Page-1" id="UobaRXX6R_So8N56h5Ct">
    <mxGraphModel dx="2066" dy="1249" grid="1" gridSize="10" guides="1" tooltips="1" connect="1" arrows="1" fold="1" page="1" pageScale="1" pageWidth="850" pageHeight="1100" math="0" shadow="0">
      <root>
        <mxCell id="0" />
        <mxCell id="1" parent="0" />
        <mxCell id="yj1IX8-9x0nHdU7WMFC2-59" style="rounded=0;orthogonalLoop=1;jettySize=auto;html=1;" edge="1" parent="1" source="yj1IX8-9x0nHdU7WMFC2-1" target="yj1IX8-9x0nHdU7WMFC2-51">
          <mxGeometry relative="1" as="geometry" />
        </mxCell>
        <mxCell id="yj1IX8-9x0nHdU7WMFC2-1" value="Literal" style="rounded=1;whiteSpace=wrap;html=1;strokeColor=#6c8ebf;align=center;verticalAlign=middle;fontFamily=Helvetica;fontSize=12;fillColor=#dae8fc;" vertex="1" parent="1">
          <mxGeometry x="560" y="600" width="120" height="40" as="geometry" />
        </mxCell>
        <mxCell id="yj1IX8-9x0nHdU7WMFC2-7" style="rounded=0;orthogonalLoop=1;jettySize=auto;html=1;" edge="1" parent="1" source="yj1IX8-9x0nHdU7WMFC2-2" target="yj1IX8-9x0nHdU7WMFC2-1">
          <mxGeometry relative="1" as="geometry" />
        </mxCell>
        <mxCell id="yj1IX8-9x0nHdU7WMFC2-2" value="Int" style="rounded=1;whiteSpace=wrap;html=1;fillColor=#d5e8d4;strokeColor=#82b366;" vertex="1" parent="1">
          <mxGeometry x="240" y="680" width="120" height="40" as="geometry" />
        </mxCell>
        <mxCell id="yj1IX8-9x0nHdU7WMFC2-8" style="rounded=0;orthogonalLoop=1;jettySize=auto;html=1;strokeColor=default;align=center;verticalAlign=middle;fontFamily=Helvetica;fontSize=11;fontColor=default;labelBackgroundColor=default;endArrow=classic;" edge="1" parent="1" source="yj1IX8-9x0nHdU7WMFC2-3" target="yj1IX8-9x0nHdU7WMFC2-1">
          <mxGeometry relative="1" as="geometry" />
        </mxCell>
        <mxCell id="yj1IX8-9x0nHdU7WMFC2-3" value="Float" style="rounded=1;whiteSpace=wrap;html=1;strokeColor=#82b366;align=center;verticalAlign=middle;fontFamily=Helvetica;fontSize=12;fontColor=default;fillColor=#d5e8d4;" vertex="1" parent="1">
          <mxGeometry x="400" y="680" width="120" height="40" as="geometry" />
        </mxCell>
        <mxCell id="yj1IX8-9x0nHdU7WMFC2-9" style="rounded=0;orthogonalLoop=1;jettySize=auto;html=1;strokeColor=default;align=center;verticalAlign=middle;fontFamily=Helvetica;fontSize=11;fontColor=default;labelBackgroundColor=default;endArrow=classic;" edge="1" parent="1" source="yj1IX8-9x0nHdU7WMFC2-4" target="yj1IX8-9x0nHdU7WMFC2-1">
          <mxGeometry relative="1" as="geometry" />
        </mxCell>
        <mxCell id="yj1IX8-9x0nHdU7WMFC2-4" value="String" style="rounded=1;whiteSpace=wrap;html=1;strokeColor=#82b366;align=center;verticalAlign=middle;fontFamily=Helvetica;fontSize=12;fontColor=default;fillColor=#d5e8d4;" vertex="1" parent="1">
          <mxGeometry x="560" y="680" width="120" height="40" as="geometry" />
        </mxCell>
        <mxCell id="yj1IX8-9x0nHdU7WMFC2-10" style="rounded=0;orthogonalLoop=1;jettySize=auto;html=1;" edge="1" parent="1" source="yj1IX8-9x0nHdU7WMFC2-5" target="yj1IX8-9x0nHdU7WMFC2-1">
          <mxGeometry relative="1" as="geometry" />
        </mxCell>
        <mxCell id="yj1IX8-9x0nHdU7WMFC2-5" value="Bool" style="rounded=1;whiteSpace=wrap;html=1;strokeColor=#82b366;align=center;verticalAlign=middle;fontFamily=Helvetica;fontSize=12;fontColor=default;fillColor=#d5e8d4;" vertex="1" parent="1">
          <mxGeometry x="720" y="680" width="120" height="40" as="geometry" />
        </mxCell>
        <mxCell id="yj1IX8-9x0nHdU7WMFC2-11" style="rounded=0;orthogonalLoop=1;jettySize=auto;html=1;" edge="1" parent="1" source="yj1IX8-9x0nHdU7WMFC2-6" target="yj1IX8-9x0nHdU7WMFC2-1">
          <mxGeometry relative="1" as="geometry" />
        </mxCell>
        <mxCell id="yj1IX8-9x0nHdU7WMFC2-6" value="None" style="rounded=1;whiteSpace=wrap;html=1;fillColor=#f8cecc;strokeColor=#b85450;" vertex="1" parent="1">
          <mxGeometry x="880" y="680" width="120" height="40" as="geometry" />
        </mxCell>
        <mxCell id="yj1IX8-9x0nHdU7WMFC2-12" value="Legend:&lt;div style=&quot;&quot;&gt;- Red: Eventually remove from language&lt;/div&gt;&lt;div&gt;- Green: Available at lower IR&lt;/div&gt;&lt;div&gt;- Yellow: Simplify in lower IR&lt;/div&gt;&lt;div&gt;- Blue: Not actually an AST, just used for categorization&lt;/div&gt;" style="text;html=1;align=left;verticalAlign=middle;resizable=0;points=[];autosize=1;strokeColor=none;fillColor=none;" vertex="1" parent="1">
          <mxGeometry x="40" y="990" width="320" height="90" as="geometry" />
        </mxCell>
        <mxCell id="yj1IX8-9x0nHdU7WMFC2-62" style="rounded=0;orthogonalLoop=1;jettySize=auto;html=1;" edge="1" parent="1" source="yj1IX8-9x0nHdU7WMFC2-13" target="yj1IX8-9x0nHdU7WMFC2-34">
          <mxGeometry relative="1" as="geometry" />
        </mxCell>
        <mxCell id="yj1IX8-9x0nHdU7WMFC2-13" value="IdentList" style="rounded=1;whiteSpace=wrap;html=1;strokeColor=#b85450;align=center;verticalAlign=middle;fontFamily=Helvetica;fontSize=12;fillColor=#f8cecc;" vertex="1" parent="1">
          <mxGeometry x="1720" y="360" width="120" height="40" as="geometry" />
        </mxCell>
        <mxCell id="yj1IX8-9x0nHdU7WMFC2-46" style="rounded=0;orthogonalLoop=1;jettySize=auto;html=1;" edge="1" parent="1" source="yj1IX8-9x0nHdU7WMFC2-15" target="yj1IX8-9x0nHdU7WMFC2-43">
          <mxGeometry relative="1" as="geometry" />
        </mxCell>
        <mxCell id="yj1IX8-9x0nHdU7WMFC2-15" value="BinaryOp" style="rounded=1;whiteSpace=wrap;html=1;strokeColor=#82b366;align=center;verticalAlign=middle;fontFamily=Helvetica;fontSize=12;fontColor=default;fillColor=#d5e8d4;" vertex="1" parent="1">
          <mxGeometry x="1320" y="600" width="120" height="40" as="geometry" />
        </mxCell>
        <mxCell id="yj1IX8-9x0nHdU7WMFC2-44" style="rounded=0;orthogonalLoop=1;jettySize=auto;html=1;" edge="1" parent="1" source="yj1IX8-9x0nHdU7WMFC2-16" target="yj1IX8-9x0nHdU7WMFC2-43">
          <mxGeometry relative="1" as="geometry" />
        </mxCell>
        <mxCell id="yj1IX8-9x0nHdU7WMFC2-16" value="ListOp" style="rounded=1;whiteSpace=wrap;html=1;strokeColor=#82b366;align=center;verticalAlign=middle;fontFamily=Helvetica;fontSize=12;fontColor=default;fillColor=#d5e8d4;" vertex="1" parent="1">
          <mxGeometry x="1000" y="600" width="120" height="40" as="geometry" />
        </mxCell>
        <mxCell id="yj1IX8-9x0nHdU7WMFC2-45" style="rounded=0;orthogonalLoop=1;jettySize=auto;html=1;" edge="1" parent="1" source="yj1IX8-9x0nHdU7WMFC2-17" target="yj1IX8-9x0nHdU7WMFC2-43">
          <mxGeometry relative="1" as="geometry" />
        </mxCell>
        <mxCell id="yj1IX8-9x0nHdU7WMFC2-17" value="UnaryOp" style="rounded=1;whiteSpace=wrap;html=1;strokeColor=#82b366;align=center;verticalAlign=middle;fontFamily=Helvetica;fontSize=12;fontColor=default;fillColor=#d5e8d4;" vertex="1" parent="1">
          <mxGeometry x="1160" y="600" width="120" height="40" as="geometry" />
        </mxCell>
        <mxCell id="yj1IX8-9x0nHdU7WMFC2-53" style="rounded=0;orthogonalLoop=1;jettySize=auto;html=1;" edge="1" parent="1" source="yj1IX8-9x0nHdU7WMFC2-18" target="yj1IX8-9x0nHdU7WMFC2-51">
          <mxGeometry relative="1" as="geometry" />
        </mxCell>
        <mxCell id="yj1IX8-9x0nHdU7WMFC2-18" value="LambdaDef" style="rounded=1;whiteSpace=wrap;html=1;strokeColor=#82b366;align=center;verticalAlign=middle;fontFamily=Helvetica;fontSize=12;fontColor=default;fillColor=#d5e8d4;" vertex="1" parent="1">
          <mxGeometry x="360" y="440" width="120" height="40" as="geometry" />
        </mxCell>
        <mxCell id="yj1IX8-9x0nHdU7WMFC2-64" style="rounded=0;orthogonalLoop=1;jettySize=auto;html=1;" edge="1" parent="1" source="yj1IX8-9x0nHdU7WMFC2-19" target="yj1IX8-9x0nHdU7WMFC2-34">
          <mxGeometry relative="1" as="geometry" />
        </mxCell>
        <mxCell id="yj1IX8-9x0nHdU7WMFC2-19" value="Type_" style="rounded=1;whiteSpace=wrap;html=1;strokeColor=#82b366;align=center;verticalAlign=middle;fontFamily=Helvetica;fontSize=12;fontColor=default;fillColor=#d5e8d4;" vertex="1" parent="1">
          <mxGeometry x="1400" y="360" width="120" height="40" as="geometry" />
        </mxCell>
        <mxCell id="yj1IX8-9x0nHdU7WMFC2-49" style="rounded=0;orthogonalLoop=1;jettySize=auto;html=1;" edge="1" parent="1" source="yj1IX8-9x0nHdU7WMFC2-20" target="yj1IX8-9x0nHdU7WMFC2-48">
          <mxGeometry relative="1" as="geometry" />
        </mxCell>
        <mxCell id="yj1IX8-9x0nHdU7WMFC2-20" value="Enumeration" style="rounded=1;whiteSpace=wrap;html=1;strokeColor=#82b366;align=center;verticalAlign=middle;fontFamily=Helvetica;fontSize=12;fontColor=default;fillColor=#d5e8d4;" vertex="1" parent="1">
          <mxGeometry x="160" y="520" width="120" height="40" as="geometry" />
        </mxCell>
        <mxCell id="yj1IX8-9x0nHdU7WMFC2-50" style="rounded=0;orthogonalLoop=1;jettySize=auto;html=1;" edge="1" parent="1" source="yj1IX8-9x0nHdU7WMFC2-21" target="yj1IX8-9x0nHdU7WMFC2-48">
          <mxGeometry relative="1" as="geometry" />
        </mxCell>
        <mxCell id="yj1IX8-9x0nHdU7WMFC2-21" value="Quantifier" style="rounded=1;whiteSpace=wrap;html=1;strokeColor=#d6b656;align=center;verticalAlign=middle;fontFamily=Helvetica;fontSize=12;fillColor=#fff2cc;" vertex="1" parent="1">
          <mxGeometry y="520" width="120" height="40" as="geometry" />
        </mxCell>
        <mxCell id="yj1IX8-9x0nHdU7WMFC2-47" style="rounded=0;orthogonalLoop=1;jettySize=auto;html=1;" edge="1" parent="1" source="yj1IX8-9x0nHdU7WMFC2-22" target="yj1IX8-9x0nHdU7WMFC2-43">
          <mxGeometry relative="1" as="geometry" />
        </mxCell>
        <mxCell id="yj1IX8-9x0nHdU7WMFC2-22" value="RelationOp" style="rounded=1;whiteSpace=wrap;html=1;strokeColor=#d6b656;align=center;verticalAlign=middle;fontFamily=Helvetica;fontSize=12;fillColor=#fff2cc;" vertex="1" parent="1">
          <mxGeometry x="840" y="600" width="120" height="40" as="geometry" />
        </mxCell>
        <mxCell id="yj1IX8-9x0nHdU7WMFC2-56" style="rounded=0;orthogonalLoop=1;jettySize=auto;html=1;" edge="1" parent="1" source="yj1IX8-9x0nHdU7WMFC2-24" target="yj1IX8-9x0nHdU7WMFC2-51">
          <mxGeometry relative="1" as="geometry" />
        </mxCell>
        <mxCell id="yj1IX8-9x0nHdU7WMFC2-24" value="StructAccess" style="rounded=1;whiteSpace=wrap;html=1;strokeColor=#82b366;align=center;verticalAlign=middle;fontFamily=Helvetica;fontSize=12;fontColor=default;fillColor=#d5e8d4;" vertex="1" parent="1">
          <mxGeometry x="1120" y="320" width="120" height="40" as="geometry" />
        </mxCell>
        <mxCell id="yj1IX8-9x0nHdU7WMFC2-55" style="rounded=0;orthogonalLoop=1;jettySize=auto;html=1;" edge="1" parent="1" source="yj1IX8-9x0nHdU7WMFC2-25" target="yj1IX8-9x0nHdU7WMFC2-51">
          <mxGeometry relative="1" as="geometry" />
        </mxCell>
        <mxCell id="yj1IX8-9x0nHdU7WMFC2-25" value="Image" style="rounded=1;whiteSpace=wrap;html=1;strokeColor=#82b366;align=center;verticalAlign=middle;fontFamily=Helvetica;fontSize=12;fontColor=default;fillColor=#d5e8d4;" vertex="1" parent="1">
          <mxGeometry x="840" y="440" width="120" height="40" as="geometry" />
        </mxCell>
        <mxCell id="yj1IX8-9x0nHdU7WMFC2-54" style="rounded=0;orthogonalLoop=1;jettySize=auto;html=1;" edge="1" parent="1" source="yj1IX8-9x0nHdU7WMFC2-26" target="yj1IX8-9x0nHdU7WMFC2-51">
          <mxGeometry relative="1" as="geometry" />
        </mxCell>
        <mxCell id="yj1IX8-9x0nHdU7WMFC2-26" value="Call" style="rounded=1;whiteSpace=wrap;html=1;strokeColor=#82b366;align=center;verticalAlign=middle;fontFamily=Helvetica;fontSize=12;fontColor=default;fillColor=#d5e8d4;" vertex="1" parent="1">
          <mxGeometry x="680" y="440" width="120" height="40" as="geometry" />
        </mxCell>
        <mxCell id="yj1IX8-9x0nHdU7WMFC2-73" style="rounded=0;orthogonalLoop=1;jettySize=auto;html=1;" edge="1" parent="1" source="yj1IX8-9x0nHdU7WMFC2-27" target="yj1IX8-9x0nHdU7WMFC2-61">
          <mxGeometry relative="1" as="geometry" />
        </mxCell>
        <mxCell id="yj1IX8-9x0nHdU7WMFC2-27" value="Assignment" style="rounded=1;whiteSpace=wrap;html=1;strokeColor=#82b366;align=center;verticalAlign=middle;fontFamily=Helvetica;fontSize=12;fontColor=default;fillColor=#d5e8d4;" vertex="1" parent="1">
          <mxGeometry x="2520" y="480" width="120" height="40" as="geometry" />
        </mxCell>
        <mxCell id="yj1IX8-9x0nHdU7WMFC2-63" style="rounded=0;orthogonalLoop=1;jettySize=auto;html=1;" edge="1" parent="1" source="yj1IX8-9x0nHdU7WMFC2-28" target="yj1IX8-9x0nHdU7WMFC2-34">
          <mxGeometry relative="1" as="geometry" />
        </mxCell>
        <mxCell id="yj1IX8-9x0nHdU7WMFC2-28" value="TypedName" style="rounded=1;whiteSpace=wrap;html=1;strokeColor=#d6b656;align=center;verticalAlign=middle;fontFamily=Helvetica;fontSize=12;fillColor=#fff2cc;" vertex="1" parent="1">
          <mxGeometry x="1560" y="360" width="120" height="40" as="geometry" />
        </mxCell>
        <mxCell id="yj1IX8-9x0nHdU7WMFC2-69" style="rounded=0;orthogonalLoop=1;jettySize=auto;html=1;" edge="1" parent="1" source="yj1IX8-9x0nHdU7WMFC2-29" target="yj1IX8-9x0nHdU7WMFC2-60">
          <mxGeometry relative="1" as="geometry" />
        </mxCell>
        <mxCell id="yj1IX8-9x0nHdU7WMFC2-29" value="Return" style="rounded=1;whiteSpace=wrap;html=1;strokeColor=#82b366;align=center;verticalAlign=middle;fontFamily=Helvetica;fontSize=12;fontColor=default;fillColor=#d5e8d4;" vertex="1" parent="1">
          <mxGeometry x="2200" y="600" width="120" height="40" as="geometry" />
        </mxCell>
        <mxCell id="yj1IX8-9x0nHdU7WMFC2-68" style="rounded=0;orthogonalLoop=1;jettySize=auto;html=1;" edge="1" parent="1" source="yj1IX8-9x0nHdU7WMFC2-33" target="yj1IX8-9x0nHdU7WMFC2-60">
          <mxGeometry relative="1" as="geometry" />
        </mxCell>
        <mxCell id="yj1IX8-9x0nHdU7WMFC2-33" value="ControlFlowStmt" style="rounded=1;whiteSpace=wrap;html=1;strokeColor=#82b366;align=center;verticalAlign=middle;fontFamily=Helvetica;fontSize=12;fontColor=default;fillColor=#d5e8d4;" vertex="1" parent="1">
          <mxGeometry x="2040" y="600" width="120" height="40" as="geometry" />
        </mxCell>
        <mxCell id="yj1IX8-9x0nHdU7WMFC2-77" style="rounded=0;orthogonalLoop=1;jettySize=auto;html=1;" edge="1" parent="1" source="yj1IX8-9x0nHdU7WMFC2-34" target="yj1IX8-9x0nHdU7WMFC2-42">
          <mxGeometry relative="1" as="geometry" />
        </mxCell>
        <mxCell id="yj1IX8-9x0nHdU7WMFC2-34" value="Statements" style="rounded=1;whiteSpace=wrap;html=1;strokeColor=#82b366;align=center;verticalAlign=middle;fontFamily=Helvetica;fontSize=12;fontColor=default;fillColor=#d5e8d4;" vertex="1" parent="1">
          <mxGeometry x="2000" y="240" width="120" height="40" as="geometry" />
        </mxCell>
        <mxCell id="yj1IX8-9x0nHdU7WMFC2-67" style="rounded=0;orthogonalLoop=1;jettySize=auto;html=1;" edge="1" parent="1" source="yj1IX8-9x0nHdU7WMFC2-35" target="yj1IX8-9x0nHdU7WMFC2-60">
          <mxGeometry relative="1" as="geometry" />
        </mxCell>
        <mxCell id="yj1IX8-9x0nHdU7WMFC2-35" value="If/Elif/Else" style="rounded=1;whiteSpace=wrap;html=1;strokeColor=#82b366;align=center;verticalAlign=middle;fontFamily=Helvetica;fontSize=12;fontColor=default;fillColor=#d5e8d4;" vertex="1" parent="1">
          <mxGeometry x="1880" y="600" width="120" height="40" as="geometry" />
        </mxCell>
        <mxCell id="yj1IX8-9x0nHdU7WMFC2-65" style="rounded=0;orthogonalLoop=1;jettySize=auto;html=1;" edge="1" parent="1" source="yj1IX8-9x0nHdU7WMFC2-36" target="yj1IX8-9x0nHdU7WMFC2-60">
          <mxGeometry relative="1" as="geometry" />
        </mxCell>
        <mxCell id="yj1IX8-9x0nHdU7WMFC2-36" value="For" style="rounded=1;whiteSpace=wrap;html=1;strokeColor=#82b366;align=center;verticalAlign=middle;fontFamily=Helvetica;fontSize=12;fontColor=default;fillColor=#d5e8d4;" vertex="1" parent="1">
          <mxGeometry x="1560" y="600" width="120" height="40" as="geometry" />
        </mxCell>
        <mxCell id="yj1IX8-9x0nHdU7WMFC2-66" style="rounded=0;orthogonalLoop=1;jettySize=auto;html=1;" edge="1" parent="1" source="yj1IX8-9x0nHdU7WMFC2-37" target="yj1IX8-9x0nHdU7WMFC2-60">
          <mxGeometry relative="1" as="geometry" />
        </mxCell>
        <mxCell id="yj1IX8-9x0nHdU7WMFC2-37" value="While" style="rounded=1;whiteSpace=wrap;html=1;strokeColor=#82b366;align=center;verticalAlign=middle;fontFamily=Helvetica;fontSize=12;fontColor=default;fillColor=#d5e8d4;" vertex="1" parent="1">
          <mxGeometry x="1720" y="600" width="120" height="40" as="geometry" />
        </mxCell>
        <mxCell id="yj1IX8-9x0nHdU7WMFC2-72" style="rounded=0;orthogonalLoop=1;jettySize=auto;html=1;" edge="1" parent="1" source="yj1IX8-9x0nHdU7WMFC2-38" target="yj1IX8-9x0nHdU7WMFC2-61">
          <mxGeometry relative="1" as="geometry" />
        </mxCell>
        <mxCell id="yj1IX8-9x0nHdU7WMFC2-38" value="StructDef" style="rounded=1;whiteSpace=wrap;html=1;strokeColor=#82b366;align=center;verticalAlign=middle;fontFamily=Helvetica;fontSize=12;fontColor=default;fillColor=#d5e8d4;" vertex="1" parent="1">
          <mxGeometry x="2360" y="480" width="120" height="40" as="geometry" />
        </mxCell>
        <mxCell id="yj1IX8-9x0nHdU7WMFC2-71" style="rounded=0;orthogonalLoop=1;jettySize=auto;html=1;" edge="1" parent="1" source="yj1IX8-9x0nHdU7WMFC2-39" target="yj1IX8-9x0nHdU7WMFC2-61">
          <mxGeometry relative="1" as="geometry" />
        </mxCell>
        <mxCell id="yj1IX8-9x0nHdU7WMFC2-39" value="ProcedureDef" style="rounded=1;whiteSpace=wrap;html=1;strokeColor=#82b366;align=center;verticalAlign=middle;fontFamily=Helvetica;fontSize=12;fontColor=default;fillColor=#d5e8d4;" vertex="1" parent="1">
          <mxGeometry x="2200" y="480" width="120" height="40" as="geometry" />
        </mxCell>
        <mxCell id="yj1IX8-9x0nHdU7WMFC2-75" style="rounded=0;orthogonalLoop=1;jettySize=auto;html=1;" edge="1" parent="1" source="yj1IX8-9x0nHdU7WMFC2-40" target="yj1IX8-9x0nHdU7WMFC2-34">
          <mxGeometry relative="1" as="geometry" />
        </mxCell>
        <mxCell id="yj1IX8-9x0nHdU7WMFC2-40" value="Import" style="rounded=1;whiteSpace=wrap;html=1;strokeColor=#d6b656;align=center;verticalAlign=middle;fontFamily=Helvetica;fontSize=12;fillColor=#fff2cc;" vertex="1" parent="1">
          <mxGeometry x="2280" y="280" width="120" height="40" as="geometry" />
        </mxCell>
        <mxCell id="yj1IX8-9x0nHdU7WMFC2-74" style="rounded=0;orthogonalLoop=1;jettySize=auto;html=1;" edge="1" parent="1" source="yj1IX8-9x0nHdU7WMFC2-41" target="yj1IX8-9x0nHdU7WMFC2-40">
          <mxGeometry relative="1" as="geometry" />
        </mxCell>
        <mxCell id="yj1IX8-9x0nHdU7WMFC2-41" value="ImportAll" style="rounded=1;whiteSpace=wrap;html=1;strokeColor=#d6b656;align=center;verticalAlign=middle;fontFamily=Helvetica;fontSize=12;fillColor=#fff2cc;" vertex="1" parent="1">
          <mxGeometry x="2440" y="320" width="120" height="40" as="geometry" />
        </mxCell>
        <mxCell id="yj1IX8-9x0nHdU7WMFC2-42" value="Start" style="rounded=1;whiteSpace=wrap;html=1;strokeColor=#82b366;align=center;verticalAlign=middle;fontFamily=Helvetica;fontSize=12;fontColor=default;fillColor=#d5e8d4;" vertex="1" parent="1">
          <mxGeometry x="1360" y="40" width="120" height="40" as="geometry" />
        </mxCell>
        <mxCell id="yj1IX8-9x0nHdU7WMFC2-58" style="rounded=0;orthogonalLoop=1;jettySize=auto;html=1;" edge="1" parent="1" source="yj1IX8-9x0nHdU7WMFC2-43" target="yj1IX8-9x0nHdU7WMFC2-51">
          <mxGeometry relative="1" as="geometry" />
        </mxCell>
        <mxCell id="yj1IX8-9x0nHdU7WMFC2-43" value="Operation" style="rounded=1;whiteSpace=wrap;html=1;strokeColor=#6c8ebf;align=center;verticalAlign=middle;fontFamily=Helvetica;fontSize=12;fillColor=#dae8fc;" vertex="1" parent="1">
          <mxGeometry x="1080" y="520" width="120" height="40" as="geometry" />
        </mxCell>
        <mxCell id="yj1IX8-9x0nHdU7WMFC2-57" style="rounded=0;orthogonalLoop=1;jettySize=auto;html=1;" edge="1" parent="1" source="yj1IX8-9x0nHdU7WMFC2-48" target="yj1IX8-9x0nHdU7WMFC2-51">
          <mxGeometry relative="1" as="geometry" />
        </mxCell>
        <mxCell id="yj1IX8-9x0nHdU7WMFC2-48" value="Collection" style="rounded=1;whiteSpace=wrap;html=1;strokeColor=#6c8ebf;align=center;verticalAlign=middle;fontFamily=Helvetica;fontSize=12;fillColor=#dae8fc;" vertex="1" parent="1">
          <mxGeometry x="80" y="440" width="120" height="40" as="geometry" />
        </mxCell>
        <mxCell id="yj1IX8-9x0nHdU7WMFC2-78" style="rounded=0;orthogonalLoop=1;jettySize=auto;html=1;" edge="1" parent="1" source="yj1IX8-9x0nHdU7WMFC2-51" target="yj1IX8-9x0nHdU7WMFC2-42">
          <mxGeometry relative="1" as="geometry" />
        </mxCell>
        <mxCell id="yj1IX8-9x0nHdU7WMFC2-51" value="Expression" style="rounded=1;whiteSpace=wrap;html=1;strokeColor=#6c8ebf;align=center;verticalAlign=middle;fontFamily=Helvetica;fontSize=12;fillColor=#dae8fc;" vertex="1" parent="1">
          <mxGeometry x="640" y="240" width="120" height="40" as="geometry" />
        </mxCell>
        <mxCell id="yj1IX8-9x0nHdU7WMFC2-70" style="rounded=0;orthogonalLoop=1;jettySize=auto;html=1;" edge="1" parent="1" source="yj1IX8-9x0nHdU7WMFC2-60" target="yj1IX8-9x0nHdU7WMFC2-34">
          <mxGeometry relative="1" as="geometry" />
        </mxCell>
        <mxCell id="yj1IX8-9x0nHdU7WMFC2-60" value="Control Flow Structures" style="rounded=1;whiteSpace=wrap;html=1;strokeColor=#6c8ebf;align=center;verticalAlign=middle;fontFamily=Helvetica;fontSize=12;fillColor=#dae8fc;" vertex="1" parent="1">
          <mxGeometry x="1880" y="510" width="120" height="40" as="geometry" />
        </mxCell>
        <mxCell id="yj1IX8-9x0nHdU7WMFC2-76" style="rounded=0;orthogonalLoop=1;jettySize=auto;html=1;" edge="1" parent="1" source="yj1IX8-9x0nHdU7WMFC2-61" target="yj1IX8-9x0nHdU7WMFC2-34">
          <mxGeometry relative="1" as="geometry" />
        </mxCell>
        <mxCell id="yj1IX8-9x0nHdU7WMFC2-61" value="Definitions" style="rounded=1;whiteSpace=wrap;html=1;strokeColor=#6c8ebf;align=center;verticalAlign=middle;fontFamily=Helvetica;fontSize=12;fillColor=#dae8fc;" vertex="1" parent="1">
          <mxGeometry x="2280" y="400" width="120" height="40" as="geometry" />
        </mxCell>
      </root>
    </mxGraphModel>
  </diagram>
</mxfile>
